<?xml version="1.0" encoding="UTF-8"?>
<svg id="Layer_1" data-name="Layer 1" xmlns="http://www.w3.org/2000/svg" xmlns:xlink="http://www.w3.org/1999/xlink" viewBox="0 0 51.53 40.29">
  <defs>
    <style>
      .cls-1, .cls-2, .cls-3, .cls-4, .cls-5, .cls-6, .cls-7, .cls-8, .cls-9, .cls-10 {
        stroke-width: .14px;
      }

      .cls-1, .cls-2, .cls-3, .cls-4, .cls-5, .cls-6, .cls-7, .cls-8, .cls-9, .cls-10, .cls-11 {
        stroke: #231f20;
        stroke-miterlimit: 10;
      }

      .cls-1, .cls-9 {
        fill: #fff;
      }

      .cls-2, .cls-11 {
        fill: #686868;
      }

      .cls-12 {
        clip-path: url(#clippath);
      }

      .cls-3 {
        fill: #353334;
      }

      .cls-4 {
        fill: #5a15b5;
      }

      .cls-5 {
        fill: #8a2be2;
      }

      .cls-6 {
        fill: #330c72;
      }

      .cls-7, .cls-13 {
        fill: #a5a0a1;
      }

      .cls-8 {
        fill: #312f30;
      }

      .cls-14 {
        fill: #494848;
      }

      .cls-9 {
        font-family: Arial-Black, 'Arial Black';
        font-size: 2.66px;
      }

      .cls-10 {
        fill: none;
      }

      .cls-11 {
        stroke-width: .56px;
      }
    </style>
    <clipPath id="clippath">
      <path class="cls-7" d="M30.87,15.64c-1.35,3.88,2.35,9.05,2.6,9.51l3.84,6.7c5.13,10.47,8.63,8.35,10.29,7.84,2.62-1.17,3.93-3.54,3.87-5.05-.02-.56,0-1.03-.06-1.67l-4.56-19.81"/>
    </clipPath>
  </defs>
  <path class="cls-3" d="M18.33,1.03l-5.6,34.91c-.11,.69,.42,1.31,1.12,1.31h18.53c.57,0,1.06-.43,1.13-1L37.79,1.34c.08-.68-.44-1.27-1.13-1.27H19.45c-.56,0-1.03,.4-1.12,.95Z"/>
  <path class="cls-7" d="M17.68,1.03l-5.6,34.91c-.11,.69,.42,1.31,1.12,1.31H31.72c.57,0,1.06-.43,1.13-1L37.14,1.34c.08-.68-.44-1.27-1.13-1.27H18.8c-.56,0-1.03,.4-1.12,.95Z"/>
  <path class="cls-1" d="M16.92,1.03l-5.6,34.91c-.11,.69,.42,1.31,1.12,1.31H30.96c.57,0,1.06-.43,1.13-1L36.38,1.34c.08-.68-.44-1.27-1.13-1.27H18.04c-.56,0-1.03,.4-1.12,.95Z"/>
  <path class="cls-13" d="M46.26,13.03c-.16-.87-.64-1.69-1.32-2.25-.11-.09-.21-.15-.35-.15-.12,0-.27,.05-.35,.15-.17,.18-.22,.53,0,.71,.15,.12,.29,.25,.41,.4,.03,.04,.06,.07,.09,.11,.04,.05-.06-.09,0-.01,.01,.02,.03,.03,.04,.05,.06,.08,.11,.17,.17,.26,.05,.08,.09,.17,.14,.25,.01,.03,.04,.12,.06,.13-.01,0-.04-.1-.01-.03,0,.03,.02,.05,.03,.07,.07,.19,.12,.38,.15,.57,.05,.26,.37,.43,.62,.35,.28-.09,.4-.34,.35-.62h0Z"/>
  <g>
    <path class="cls-6" d="M20.78,8.65h-2.12c-.55,0-.93-.47-.85-1.05l.41-2.98c.08-.58,.6-1.05,1.15-1.04l2.13,.06c.54,.01,.9,.49,.82,1.07l-.43,2.92c-.08,.56-.58,1.03-1.12,1.03Z"/>
    <path class="cls-4" d="M20.28,8.65h-2.12c-.55,0-.93-.47-.85-1.05l.41-2.98c.08-.58,.6-1.05,1.15-1.04l2.13,.06c.54,.01,.9,.49,.82,1.07l-.43,2.92c-.08,.56-.58,1.03-1.12,1.03Z"/>
    <path class="cls-5" d="M19.64,8.65h-2.12c-.55,0-.93-.47-.85-1.05l.41-2.98c.08-.58,.6-1.05,1.15-1.04l2.13,.06c.54,.01,.9,.49,.82,1.07l-.43,2.92c-.08,.56-.58,1.03-1.12,1.03Z"/>
  </g>
  <g>
    <path class="cls-6" d="M27.38,8.65h-2.12c-.55,0-.93-.47-.85-1.05l.41-2.98c.08-.58,.6-1.05,1.15-1.04l2.13,.06c.54,.01,.9,.49,.82,1.07l-.43,2.92c-.08,.56-.58,1.03-1.12,1.03Z"/>
    <path class="cls-4" d="M26.88,8.65h-2.12c-.55,0-.93-.47-.85-1.05l.41-2.98c.08-.58,.6-1.05,1.15-1.04l2.13,.06c.54,.01,.9,.49,.82,1.07l-.43,2.92c-.08,.56-.58,1.03-1.12,1.03Z"/>
    <path class="cls-5" d="M26.25,8.65h-2.12c-.55,0-.93-.47-.85-1.05l.41-2.98c.08-.58,.6-1.05,1.15-1.04l2.13,.06c.54,.01,.9,.49,.82,1.07l-.43,2.92c-.08,.56-.58,1.03-1.12,1.03Z"/>
  </g>
  <g>
    <path class="cls-6" d="M33.99,8.65h-2.12c-.55,0-.93-.47-.85-1.05l.41-2.98c.08-.58,.6-1.05,1.15-1.04l2.13,.06c.54,.01,.9,.49,.82,1.07l-.43,2.92c-.08,.56-.58,1.03-1.12,1.03Z"/>
    <path class="cls-4" d="M33.48,8.65h-2.12c-.55,0-.93-.47-.85-1.05l.41-2.98c.08-.58,.6-1.05,1.15-1.04l2.13,.06c.54,.01,.9,.49,.82,1.07l-.43,2.92c-.08,.56-.58,1.03-1.12,1.03Z"/>
    <path class="cls-5" d="M32.85,8.65h-2.12c-.55,0-.93-.47-.85-1.05l.41-2.98c.08-.58,.6-1.05,1.15-1.04l2.13,.06c.54,.01,.9,.49,.82,1.07l-.43,2.92c-.08,.56-.58,1.03-1.12,1.03Z"/>
  </g>
  <g>
    <path class="cls-6" d="M19.73,16.39h-2.12c-.55,0-.93-.47-.85-1.05l.41-2.98c.08-.58,.6-1.05,1.15-1.04l2.13,.06c.54,.01,.9,.49,.82,1.07l-.43,2.92c-.08,.56-.58,1.03-1.12,1.03Z"/>
    <path class="cls-4" d="M19.23,16.39h-2.12c-.55,0-.93-.47-.85-1.05l.41-2.98c.08-.58,.6-1.05,1.15-1.04l2.13,.06c.54,.01,.9,.49,.82,1.07l-.43,2.92c-.08,.56-.58,1.03-1.12,1.03Z"/>
    <path class="cls-5" d="M18.59,16.39h-2.12c-.55,0-.93-.47-.85-1.05l.41-2.98c.08-.58,.6-1.05,1.15-1.04l2.13,.06c.54,.01,.9,.49,.82,1.07l-.43,2.92c-.08,.56-.58,1.03-1.12,1.03Z"/>
  </g>
  <g>
    <path class="cls-6" d="M26.33,16.39h-2.12c-.55,0-.93-.47-.85-1.05l.41-2.98c.08-.58,.6-1.05,1.15-1.04l2.13,.06c.54,.01,.9,.49,.82,1.07l-.43,2.92c-.08,.56-.58,1.03-1.12,1.03Z"/>
    <path class="cls-4" d="M25.83,16.39h-2.12c-.55,0-.93-.47-.85-1.05l.41-2.98c.08-.58,.6-1.05,1.15-1.04l2.13,.06c.54,.01,.9,.49,.82,1.07l-.43,2.92c-.08,.56-.58,1.03-1.12,1.03Z"/>
    <path class="cls-5" d="M25.2,16.39h-2.12c-.55,0-.93-.47-.85-1.05l.41-2.98c.08-.58,.6-1.05,1.15-1.04l2.13,.06c.54,.01,.9,.49,.82,1.07l-.43,2.92c-.08,.56-.58,1.03-1.12,1.03Z"/>
  </g>
  <g>
    <path class="cls-6" d="M32.94,16.39h-2.12c-.55,0-.93-.47-.85-1.05l.41-2.98c.08-.58,.6-1.05,1.15-1.04l2.13,.06c.54,.01,.9,.49,.82,1.07l-.43,2.92c-.08,.56-.58,1.03-1.12,1.03Z"/>
    <path class="cls-4" d="M32.43,16.39h-2.12c-.55,0-.93-.47-.85-1.05l.41-2.98c.08-.58,.6-1.05,1.15-1.04l2.13,.06c.54,.01,.9,.49,.82,1.07l-.43,2.92c-.08,.56-.58,1.03-1.12,1.03Z"/>
    <path class="cls-5" d="M31.8,16.39h-2.12c-.55,0-.93-.47-.85-1.05l.41-2.98c.08-.58,.6-1.05,1.15-1.04l2.13,.06c.54,.01,.9,.49,.82,1.07l-.43,2.92c-.08,.56-.58,1.03-1.12,1.03Z"/>
  </g>
  <g>
    <path class="cls-6" d="M18.83,23.97h-2.12c-.55,0-.93-.47-.85-1.05l.41-2.98c.08-.58,.6-1.05,1.15-1.04l2.13,.06c.54,.01,.9,.49,.82,1.07l-.43,2.92c-.08,.56-.58,1.03-1.12,1.03Z"/>
    <path class="cls-4" d="M18.33,23.97h-2.12c-.55,0-.93-.47-.85-1.05l.41-2.98c.08-.58,.6-1.05,1.15-1.04l2.13,.06c.54,.01,.9,.49,.82,1.07l-.43,2.92c-.08,.56-.58,1.03-1.12,1.03Z"/>
    <path class="cls-5" d="M17.69,23.97h-2.12c-.55,0-.93-.47-.85-1.05l.41-2.98c.08-.58,.6-1.05,1.15-1.04l2.13,.06c.54,.01,.9,.49,.82,1.07l-.43,2.92c-.08,.56-.58,1.03-1.12,1.03Z"/>
  </g>
  <g>
    <path class="cls-6" d="M25.43,23.97h-2.12c-.55,0-.93-.47-.85-1.05l.41-2.98c.08-.58,.6-1.05,1.15-1.04l2.13,.06c.54,.01,.9,.49,.82,1.07l-.43,2.92c-.08,.56-.58,1.03-1.12,1.03Z"/>
    <path class="cls-4" d="M24.93,23.97h-2.12c-.55,0-.93-.47-.85-1.05l.41-2.98c.08-.58,.6-1.05,1.15-1.04l2.13,.06c.54,.01,.9,.49,.82,1.07l-.43,2.92c-.08,.56-.58,1.03-1.12,1.03Z"/>
    <path class="cls-5" d="M24.3,23.97h-2.12c-.55,0-.93-.47-.85-1.05l.41-2.98c.08-.58,.6-1.05,1.15-1.04l2.13,.06c.54,.01,.9,.49,.82,1.07l-.43,2.92c-.08,.56-.58,1.03-1.12,1.03Z"/>
  </g>
  <g>
    <path class="cls-6" d="M32.04,23.97h-2.12c-.55,0-.93-.47-.85-1.05l.41-2.98c.08-.58,.6-1.05,1.15-1.04l2.13,.06c.54,.01,.9,.49,.82,1.07l-.43,2.92c-.08,.56-.58,1.03-1.12,1.03Z"/>
    <path class="cls-4" d="M31.54,23.97h-2.12c-.55,0-.93-.47-.85-1.05l.41-2.98c.08-.58,.6-1.05,1.15-1.04l2.13,.06c.54,.01,.9,.49,.82,1.07l-.43,2.92c-.08,.56-.58,1.03-1.12,1.03Z"/>
    <path class="cls-5" d="M30.9,23.97h-2.12c-.55,0-.93-.47-.85-1.05l.41-2.98c.08-.58,.6-1.05,1.15-1.04l2.13,.06c.54,.01,.9,.49,.82,1.07l-.43,2.92c-.08,.56-.58,1.03-1.12,1.03Z"/>
  </g>
  <g>
    <path class="cls-6" d="M17.59,31.35h-2.12c-.55,0-.93-.47-.85-1.05l.41-2.98c.08-.58,.6-1.05,1.15-1.04l2.13,.06c.54,.01,.9,.49,.82,1.07l-.43,2.92c-.08,.56-.58,1.03-1.12,1.03Z"/>
    <path class="cls-4" d="M17.09,31.35h-2.12c-.55,0-.93-.47-.85-1.05l.41-2.98c.08-.58,.6-1.05,1.15-1.04l2.13,.06c.54,.01,.9,.49,.82,1.07l-.43,2.92c-.08,.56-.58,1.03-1.12,1.03Z"/>
    <path class="cls-5" d="M16.45,31.35h-2.12c-.55,0-.93-.47-.85-1.05l.41-2.98c.08-.58,.6-1.05,1.15-1.04l2.13,.06c.54,.01,.9,.49,.82,1.07l-.43,2.92c-.08,.56-.58,1.03-1.12,1.03Z"/>
  </g>
  <g>
    <path class="cls-6" d="M24.19,31.35h-2.12c-.55,0-.93-.47-.85-1.05l.41-2.98c.08-.58,.6-1.05,1.15-1.04l2.13,.06c.54,.01,.9,.49,.82,1.07l-.43,2.92c-.08,.56-.58,1.03-1.12,1.03Z"/>
    <path class="cls-4" d="M23.69,31.35h-2.12c-.55,0-.93-.47-.85-1.05l.41-2.98c.08-.58,.6-1.05,1.15-1.04l2.13,.06c.54,.01,.9,.49,.82,1.07l-.43,2.92c-.08,.56-.58,1.03-1.12,1.03Z"/>
    <path class="cls-5" d="M23.06,31.35h-2.12c-.55,0-.93-.47-.85-1.05l.41-2.98c.08-.58,.6-1.05,1.15-1.04l2.13,.06c.54,.01,.9,.49,.82,1.07l-.43,2.92c-.08,.56-.58,1.03-1.12,1.03Z"/>
  </g>
  <g>
    <path class="cls-6" d="M30.8,31.35h-2.12c-.55,0-.93-.47-.85-1.05l.41-2.98c.08-.58,.6-1.05,1.15-1.04l2.13,.06c.54,.01,.9,.49,.82,1.07l-.43,2.92c-.08,.56-.58,1.03-1.12,1.03Z"/>
    <path class="cls-4" d="M30.29,31.35h-2.12c-.55,0-.93-.47-.85-1.05l.41-2.98c.08-.58,.6-1.05,1.15-1.04l2.13,.06c.54,.01,.9,.49,.82,1.07l-.43,2.92c-.08,.56-.58,1.03-1.12,1.03Z"/>
    <path class="cls-5" d="M29.66,31.35h-2.12c-.55,0-.93-.47-.85-1.05l.41-2.98c.08-.58,.6-1.05,1.15-1.04l2.13,.06c.54,.01,.9,.49,.82,1.07l-.43,2.92c-.08,.56-.58,1.03-1.12,1.03Z"/>
  </g>
  <path class="cls-11" d="M3.95,38.9s4.78,1.69,6.96-4.4l3.15-9.83c.03-.08-.05,.14-.1,.21L3.95,38.9"/>
  <path class="cls-7" d="M5.67,9.92s.67-2.69,2.62-3.15c0,0,4.63-1.1,5.66,.57,0,0,.25,1.73,0,2.58,0,0-3.75-2.65-8.27,0Z"/>
  <path class="cls-2" d="M13.94,7.34c.09-.17,1.23,1.34,1.53,1.74,.05,.06,.07,.14,.07,.21v1.79c0,.12-.09,.21-.2,.21h0s-.05-.01-.07-.04c-.59-.83-1.33-1.19-1.33-1.19v-2.73Z"/>
  <path class="cls-7" d="M1.28,18.4s-3.62,18.38,1.7,20.42c0,0,6.63,2.83,9.03-9.2,0,0,.56-2.37,1.93-4.7,.17-.3,.22-.65,.13-.98l-.54-1.91c-.05-.17-.01-.35,.1-.49,.83-1.01,4.14-5.5,1.83-10.29L1.28,18.4Z"/>
  <path class="cls-7" d="M9.16,22.73c-1.82,.47-3.77,.28-5.41-.64-1.36-.76-2.64-2.07-2.75-4.33-.02-.43,0-.9,.07-1.4,0,0,.18-3.36,4.61-6.43,0,0,4.96-2.88,8.92,.47,.47,.4,.79,.95,.92,1.56,.51,2.39,1.13,8.84-6.35,10.78Z"/>
  <path class="cls-8" d="M7.46,12.5l-.08,1.63c0,.09,.03,.17,.1,.23l.67,.61c.1,.09,.24,.1,.36,.03l1.44-.9c.08-.05,.13-.13,.14-.22l.17-1.41c.02-.18-.12-.34-.3-.33l-2.2,.07c-.15,0-.28,.13-.29,.28Z"/>
  <path class="cls-8" d="M4.55,14.91l-.12,2.02c-.01,.17,.13,.32,.3,.32h1.26c.08,0,.16-.03,.21-.09l1.19-1.18c.1-.1,.12-.26,.04-.38l-.58-.84c-.06-.08-.15-.13-.25-.13h-1.75c-.16,0-.29,.12-.3,.28Z"/>
  <path class="cls-8" d="M8.25,16.81l.89,.76c.08,.07,.12,.17,.1,.27l-.24,1.61c-.02,.15-.15,.26-.3,.26h-2.1c-.19,0-.33-.17-.3-.35l.29-1.64c.01-.08,.06-.16,.13-.2l1.15-.73c.11-.07,.26-.06,.36,.02Z"/>
  <path class="cls-8" d="M9.14,15.97l.71,1.03c.05,.08,.15,.13,.25,.13l1.6,.02c.15,0,.28-.1,.3-.25l.3-1.99c.02-.16-.1-.31-.27-.33l-1.6-.14c-.09,0-.18,.03-.25,.09l-1.02,1.07c-.09,.1-.1,.24-.03,.35Z"/>
  <path class="cls-14" d="M4.56,14.98l-.12,1.33c-.02,.18,.13,.34,.31,.34h.98c.07,0,.14-.02,.19-.07l.93-.73c.13-.1,.16-.3,.06-.43l-.44-.6c-.06-.08-.15-.13-.25-.13h-1.34c-.16,0-.3,.12-.31,.29Z"/>
  <path class="cls-14" d="M7.47,12.49l-.09,1.16c0,.09,.03,.18,.09,.24l.55,.5c.11,.1,.27,.1,.38,.01l.86-.7c.06-.05,.1-.13,.11-.21l.06-1.04c0-.17-.13-.32-.31-.31l-1.38,.07c-.15,0-.27,.12-.28,.27Z"/>
  <path class="cls-14" d="M9.31,15.88l.38,.52c.06,.08,.15,.12,.24,.12h1.15c.15,0,.28-.11,.3-.26l.18-1.29c.03-.18-.03-.38-.22-.38l-.77-.07c-.07,0-.27,.03-.32,.07l-.89,.87c-.12,.1-.15,.28-.05,.41Z"/>
  <path class="cls-14" d="M7.87,16.79l-.92,.63c-.06,.04-.11,.11-.12,.19l-.2,.96c-.04,.19,.1,.36,.29,.36h1.63c.16,0,.29-.12,.3-.27l.09-1.02c0-.09-.03-.18-.09-.24l-.6-.57c-.1-.1-.26-.11-.38-.03Z"/>
  <path class="cls-10" d="M3.12,14.24l-.59,3.52c-.03,.19,.11,.36,.3,.36h2.5c.18,0,.33,.16,.31,.34l-.28,2.62c-.02,.18,.12,.34,.31,.34h3.43c.15,0,.28-.11,.3-.25l.56-3c.03-.15,.16-.25,.31-.25l3.11,.04c.15,0,.28-.11,.31-.26l.54-3.37c.03-.18-.1-.34-.28-.36l-2.72-.19c-.17-.01-.3-.17-.28-.34l.29-2.58c.02-.18-.12-.34-.31-.34h-3.29c-.14,0-.26,.1-.3,.23l-.74,2.88c-.03,.13-.15,.22-.28,.23l-2.89,.13c-.14,0-.27,.11-.29,.26Z"/>
  <path class="cls-10" d="M3.29,15.99l.32,.64s.07,.03,.08-.01l.23-1.11s-.04-.07-.07-.04l-.55,.47s-.02,.03-.01,.05Z"/>
  <path class="cls-10" d="M8.63,11.55h1.1s.07-.06,.04-.09l-.46-.44s-.05-.02-.07,0l-.64,.44s-.02,.1,.03,.1Z"/>
  <path class="cls-10" d="M12.97,15.35l-.21,1.13s.03,.05,.06,.03l.62-.62s.01-.03,0-.05l-.41-.51s-.06-.01-.06,.02Z"/>
  <path class="cls-10" d="M6.96,20.37h1.02s.06,.05,.03,.08l-.58,.54s-.05,.02-.06,0l-.44-.54s0-.07,.03-.07Z"/>
  <path class="cls-3" d="M47.15,14.42l.95,1.49c.17,.27,.27,.58,.29,.89l.18,3.53c.02,.41-.64,.49-.74,.09l-1.37-5.76c-.09-.37,.48-.57,.69-.24Z"/>
  <path class="cls-7" d="M35.46,9.92c-.12,.06-.26-.05-.22-.19,.24-.79,.95-2.65,2.35-2.93,0,0,3.69-1,5.65,.21,.18,.11,.29,.3,.3,.51l.12,2.22c0,.14-.15,.24-.27,.17-.94-.53-4.04-1.95-7.93,.01Z"/>
  <path class="cls-2" d="M43.55,7.52s1.17,1.19,1.53,1.64c.07,.08,.1,.18,.1,.29v2.16l-1.61-1.66-.02-2.42Z"/>
  <g>
    <path class="cls-13" d="M30.87,15.64c-1.35,3.88,2.35,9.05,2.6,9.51l3.84,6.7c5.13,10.47,8.63,8.35,10.29,7.84,2.62-1.17,3.93-3.54,3.87-5.05-.02-.56,0-1.03-.06-1.67l-4.56-19.81"/>
    <g class="cls-12">
      <path class="cls-13" d="M46.48,13.23l-.56-.69c-.08-.1-.24-.12-.35-.09-.13,.04-.21,.13-.25,.25-.16,.44,0,1.01,.36,1.3,.08,.06,.15,.11,.25,.11,.09,0,.19-.04,.25-.11s.11-.16,.11-.25c0-.09-.03-.2-.11-.25-.05-.04-.1-.09-.14-.14l.06,.07c-.04-.06-.08-.12-.11-.19l.04,.09c-.03-.07-.05-.15-.06-.22v.1c0-.08,0-.15,.01-.23v.1c0-.06,0-.12,.03-.17l-.6,.16,.56,.69c.05,.07,.17,.11,.25,.11,.09,0,.19-.04,.25-.11s.11-.16,.11-.25c0-.1-.04-.18-.11-.25h0Z"/>
      <path class="cls-13" d="M46.41,13.33c-.11-.11-.22-.22-.32-.34-.01-.01-.02-.03-.03-.04,0,0-.01-.01-.02-.02-.02-.02-.01-.01,.02,.02-.02,0-.05-.07-.06-.09-.05-.06-.09-.13-.13-.2-.08-.13-.15-.26-.22-.4,0-.02-.02-.04-.03-.06,0,0-.03-.06,0-.02s0,0,0-.02c0-.02-.02-.04-.02-.06-.03-.07-.05-.15-.08-.23-.06-.18-.25-.31-.44-.25s-.31,.25-.25,.44c.21,.67,.59,1.28,1.1,1.77,.14,.13,.38,.15,.51,0s.15-.37,0-.51h0Z"/>
      <path class="cls-13" d="M45.21,12.58l.93,1.2c.05,.07,.17,.11,.25,.11,.09,0,.19-.04,.25-.11s.11-.16,.11-.25c0-.1-.04-.17-.11-.25l-.93-1.2c-.05-.07-.17-.11-.25-.11-.09,0-.19,.04-.25,.11s-.11,.16-.11,.25c0,.1,.04,.17,.11,.25h0Z"/>
      <path class="cls-13" d="M46.71,12.98c-.42-.27-.78-.58-1.12-.98-.09-.11-.12-.14-.2-.25-.07-.1-.14-.21-.21-.31-.14-.23-.26-.46-.36-.7-.08-.18-.34-.22-.49-.13-.19,.11-.21,.31-.13,.49,.44,1.03,1.2,1.91,2.14,2.52,.16,.1,.4,.03,.49-.13,.1-.17,.04-.39-.13-.49h0Z"/>
      <path class="cls-13" d="M46.19,12.68l-.39-.13s-.1-.02-.14,0c-.05,0-.09,.02-.13,.04l-.07,.06s-.06,.07-.07,.12c-.02,.03-.02,.06-.02,.09-.01,.05,0,.1,0,.14l.04,.09c.03,.05,.08,.1,.13,.13,.14,.11,.29,.21,.43,.32,.04,.03,.09,.04,.13,.04,.05,.01,.1,0,.14,0,.05-.01,.09-.03,.12-.06,.04-.03,.07-.06,.09-.1,.04-.08,.07-.18,.04-.28l-.04-.09c-.03-.05-.08-.1-.13-.13-.14-.11-.29-.21-.43-.32l-.28,.66,.39,.13s.1,.02,.14,0c.05,0,.09-.02,.13-.04,.04-.02,.08-.05,.1-.09,.03-.03,.05-.08,.06-.12,.02-.09,.02-.2-.04-.28l-.06-.07s-.1-.08-.16-.09h0Z"/>
      <path class="cls-13" d="M46.74,13.16l-.37-.34c-.07-.06-.16-.11-.25-.11-.05,0-.1,0-.14,.03-.04,.01-.08,.04-.12,.07-.06,.07-.11,.16-.11,.25v.1c.03,.06,.06,.11,.11,.16l.37,.34c.07,.06,.16,.11,.25,.11,.05,0,.1,0,.14-.03,.04-.01,.08-.04,.12-.07,.06-.07,.11-.16,.11-.25v-.1c-.03-.06-.06-.11-.11-.16h0Z"/>
      <path class="cls-13" d="M46.78,13.14c-.25-.4-.69-.65-1.16-.65-.09,0-.19,.04-.25,.11s-.11,.16-.11,.25c0,.2,.16,.36,.36,.36,.04,0,.08,0,.12,0h-.1c.09,0,.18,.03,.27,.06l-.09-.04c.08,.04,.16,.08,.23,.14l-.07-.06c.07,.05,.13,.11,.18,.18l-.06-.07s.04,.05,.05,.07c.05,.08,.12,.14,.22,.17,.09,.02,.2,.01,.28-.04s.14-.12,.17-.22,.02-.2-.04-.28h0Z"/>
      <path class="cls-13" d="M46.65,13l-.66-.25c-.08-.03-.2,0-.28,.04s-.15,.13-.17,.22c-.02,.09-.02,.2,.04,.28l.06,.07s.1,.08,.16,.09l.66,.25c.08,.03,.2,0,.28-.04s.15-.13,.17-.22c.02-.09,.02-.2-.04-.28l-.06-.07s-.1-.08-.16-.09h0Z"/>
    </g>
    <path class="cls-10" d="M30.87,15.64c-1.35,3.88,2.35,9.05,2.6,9.51l3.84,6.7c5.13,10.47,8.63,8.35,10.29,7.84,2.62-1.17,3.93-3.54,3.87-5.05-.02-.56,0-1.03-.06-1.67l-4.56-19.81"/>
  </g>
  <path class="cls-7" d="M33.77,11.17c-.73,.7-1.6,1.67-2.26,2.84-2.4,4.26,.73,9.45,5.61,9.45,2.26,0,5.03-.8,7.49-3.8,0,0,3.19-3.53-.37-8.8-.46-.68-1.12-1.19-1.9-1.44-1.06-.35-2.75-.69-4.75-.28-1.45,.29-2.77,1.01-3.83,2.03Z"/>
  <path class="cls-10" d="M36.18,13.92l.73-3.14c.04-.16,.18-.27,.34-.27h3.56c.21,0,.37,.18,.35,.39l-.28,2.62c-.02,.21,.14,.39,.35,.39h3.1c.2,0,.37,.18,.35,.38l-.32,3.67c-.02,.18-.17,.32-.35,.32h-3.6c-.17,0-.31,.12-.34,.29l-.58,3.16c-.03,.17-.17,.29-.34,.29h-3.72c-.21,0-.37-.18-.35-.39l.34-2.8c.02-.21-.14-.39-.35-.39h-3.04c-.21,0-.38-.19-.35-.4l.54-3.53c.03-.17,.17-.3,.35-.3h3.26c.16,0,.3-.11,.34-.27Z"/>
  <ellipse class="cls-8" cx="42.29" cy="16.06" rx="1.85" ry="1.68"/>
  <ellipse class="cls-8" cx="38.67" cy="12.48" rx="1.76" ry="1.7"/>
  <circle class="cls-8" cx="33.96" cy="16.17" r="1.76"/>
  <circle class="cls-8" cx="37.39" cy="19.76" r="1.83"/>
  <circle class="cls-14" cx="33.84" cy="15.99" r="1.42"/>
  <circle class="cls-14" cx="37.21" cy="19.36" r="1.51"/>
  <ellipse class="cls-14" cx="38.52" cy="12.43" rx="1.55" ry="1.42"/>
  <ellipse class="cls-14" cx="41.8" cy="15.96" rx="1.5" ry="1.35"/>
  <path class="cls-3" d="M45.32,9.62l1.52,3.54c.03,.08-.06,.14-.12,.08l-1.52-1.62s-.02-.03-.02-.05v-1.92c0-.08,.11-.1,.14-.03Z"/>
  <text class="cls-9" transform="translate(37.57 13.31) rotate(1.64) scale(1.05 1) skewX(-.16)"><tspan x="0" y="0">P</tspan></text>
  <text class="cls-9" transform="translate(40.98 16.79) rotate(1.64) scale(1.05 1) skewX(-.16)"><tspan x="0" y="0">L</tspan></text>
  <text class="cls-9" transform="translate(36.39 20.37) rotate(1.64) scale(1.05 1) skewX(-.16)"><tspan x="0" y="0">A</tspan></text>
  <text class="cls-9" transform="translate(32.82 17.02) rotate(1.64) scale(1.05 1) skewX(-.16)"><tspan x="0" y="0">Y</tspan></text>
  <path class="cls-13" d="M46.18,13.92c.64,0,.64-1,0-1s-.64,1,0,1h0Z"/>
</svg>